<?xml version="1.0" encoding="UTF-8"?>
<svg version="0.0" viewBox="0 0 1500 1500" xmlns="http://www.w3.org/2000/svg">
 <defs>
  <filter id="d" x="-.05423" y="-.05167" width="1.108" height="1.103" color-interpolation-filters="sRGB">
   <feGaussianBlur stdDeviation="22.585016"/>
  </filter>
  <filter id="c" x="-.000123" y="-.0001172" width="1" height="1" color-interpolation-filters="sRGB">
   <feGaussianBlur stdDeviation="0.051213188"/>
  </filter>
  <filter id="b" x="-.006026" y="-.005741" width="1.012" height="1.011" color-interpolation-filters="sRGB">
   <feGaussianBlur stdDeviation="2.5094462"/>
  </filter>
  <filter id="a" x="-.8269" y="-.7878" width="2.654" height="2.576" color-interpolation-filters="sRGB">
   <feGaussianBlur stdDeviation="344.35748"/>
  </filter>
  <clipPath id="j">
   <rect x="576.2" y="601" width="1500" height="1500"/>
  </clipPath>
  <clipPath id="i">
   <rect x="576.2" y="601" width="1500" height="1500"/>
  </clipPath>
  <clipPath id="h">
   <rect x="576.2" y="601" width="1500" height="1500"/>
  </clipPath>
  <clipPath id="g">
   <rect x="576.2" y="601" width="1500" height="1500"/>
  </clipPath>
  <clipPath id="f">
   <rect x="576.2" y="601" width="1500" height="1500"/>
  </clipPath>
  <clipPath id="e">
   <rect x="576.2" y="601" width="1500" height="1500"/>
  </clipPath>
 </defs>
 <circle transform="translate(-576.2 -601)" cx="1326" cy="1351" r="750" clip-path="url(#e)"/>
 <g fill="#f59e0b" stroke="#f59e0b" stroke-width=".5">
  <path transform="translate(-576.2 -601)" d="m965.4 1554q-1.218 30.46 14.62 47.52 15.84 15.84 37.77 17.06 21.93 1.219 38.99-13.4 17.06-15.84 18.28-46.3 1.218-19.5 19.5-48.74 19.5-29.24 41.43-57.27 23.15-28.02 35.34-43.87 20.71-26.81 31.68-51.18 10.97-25.59 18.28-48.74 8.529-23.15 18.28-45.08 9.748-23.15 25.59-46.3 14.62-20.71 34.12-28.02 19.5-7.311 42.65-9.748 24.37-3.655 52.39-10.97 28.02-8.529 59.71-30.46 25.59-18.28 28.02-40.21 3.655-23.15-9.748-40.21-12.18-18.28-34.12-23.15-21.93-4.874-47.52 13.4-18.28 13.4-45.08 19.5-26.81 4.874-57.27 12.18-29.24 6.092-58.49 23.15-29.24 15.84-54.83 51.18-20.71 29.24-31.68 54.83-10.97 25.59-19.5 48.74-7.311 21.93-15.84 43.87-8.529 20.71-24.37 41.43-31.68 42.65-57.27 70.67-25.59 28.02-42.65 58.49-15.84 30.46-18.28 81.64zm262-165.7q-28.02 12.18-36.55 32.9-8.529 20.71-2.437 41.43 6.092 19.5 23.15 30.46 17.06 10.97 38.99 3.655 21.93-7.311 32.9-9.748 12.18-2.437 21.93 2.437t23.15 18.28q18.28 18.28 38.99 14.62 20.71-3.656 34.12-20.71 14.62-17.06 14.62-40.21 0-23.15-23.15-43.87-23.15-20.71-51.18-30.46-26.81-10.97-56.05-10.97t-58.49 12.18zm354.6-62.14q28.02-3.655 40.21-20.71 12.18-18.28 9.748-38.99-1.218-20.71-18.28-35.34-15.84-15.84-47.52-13.4-47.52 3.656-80.42 30.46-32.9 26.81-48.74 65.8-14.62 38.99-10.97 80.42 4.874 41.43 32.9 73.11 24.37 26.81 58.49 37.77t69.45 7.311q36.55-4.874 67.02-24.37 30.46-19.5 47.52-52.39 14.62-28.02 7.311-48.74-7.311-20.71-26.81-30.46-18.28-10.97-38.99-7.311-19.5 2.437-32.9 24.37-10.97 18.28-24.37 25.59-13.4 7.311-25.59 6.092-10.97-2.437-18.28-10.97-8.529-9.748-8.529-24.37t12.18-26.81q12.18-13.4 36.55-17.06zm12.18 504.4q14.62-10.97 17.06-28.02 2.437-15.84-4.874-31.68-6.092-14.62-21.93-21.93-15.84-7.311-37.77 2.437-13.4 4.874-24.37 9.748t-19.5 6.092-14.62-2.437q-4.874-3.655-3.656-20.71 1.218-15.84 2.437-38.99 1.218-24.37-6.092-49.96-6.092-26.81-25.59-48.74-19.5-23.15-58.49-36.55-51.18-18.28-99.92-31.68-47.52-14.62-97.48-25.59-48.74-12.18-104.8-20.71-54.83-8.529-120.6-14.62-21.93-2.437-30.46-7.311-7.311-6.092-4.874-17.06 3.655-12.18 9.748-29.24 37.77-99.92 95.04-188.9 57.27-88.95 126.7-158.4 70.67-70.67 145-112.1 23.15-13.4 37.77-19.5 14.62-6.092 25.59 0 12.18 4.874 26.81 28.02 28.02 45.08 62.14 113.3 34.12 67.02 69.45 146.2 35.34 79.2 68.23 157.2 32.9 76.76 58.49 141.3 25.59 64.58 37.77 103.6 4.874 14.62 4.874 21.93 1.218 6.092-4.874 7.311-4.874 0-18.28-3.656-26.81-9.748-47.52-17.06-20.71-7.311-53.61-18.28-29.24-10.97-49.96 0-19.5 9.748-26.81 30.46-7.311 19.5 1.218 40.21 9.748 20.71 38.99 31.68 21.93 8.529 42.65 15.84 20.71 7.311 43.87 13.4 23.15 7.311 51.18 17.06 59.71 19.5 95.04 2.437 36.55-17.06 45.08-60.92 9.748-43.87-14.62-102.4-25.59-67.02-56.05-142.6-30.46-76.76-64.58-156-32.9-79.2-68.23-156-34.12-77.98-69.45-147.4-35.34-69.45-69.45-124.3-24.37-38.99-57.27-51.18-31.68-13.4-69.45-6.092-36.55 7.311-77.98 30.46-92.6 52.39-175.5 134-82.86 80.42-149.9 184-65.8 102.4-110.9 221.8-13.4 36.55-13.4 69.45 0 31.68 13.4 57.27 13.4 24.37 37.77 40.21 25.59 14.62 60.92 18.28 71.89 7.311 131.6 15.84 59.71 8.529 109.7 18.28 51.18 9.748 95.04 21.93 43.87 12.18 81.64 26.81 15.84 6.092 21.93 25.59 6.092 19.5 8.529 45.08t6.092 51.18q4.874 26.81 17.06 47.52 12.18 21.93 38.99 31.68 29.24 9.748 54.83 6.092 25.59-3.655 47.52-17.06 23.15-12.18 42.65-26.81z" clip-path="url(#f)" filter="url(#a)"/>
  <path transform="translate(-576.2 -601)" d="m965.4 1554q-1.218 30.46 14.62 47.52 15.84 15.84 37.77 17.06 21.93 1.219 38.99-13.4 17.06-15.84 18.28-46.3 1.218-19.5 19.5-48.74 19.5-29.24 41.43-57.27 23.15-28.02 35.34-43.87 20.71-26.81 31.68-51.18 10.97-25.59 18.28-48.74 8.529-23.15 18.28-45.08 9.748-23.15 25.59-46.3 14.62-20.71 34.12-28.02 19.5-7.311 42.65-9.748 24.37-3.655 52.39-10.97 28.02-8.529 59.71-30.46 25.59-18.28 28.02-40.21 3.655-23.15-9.748-40.21-12.18-18.28-34.12-23.15-21.93-4.874-47.52 13.4-18.28 13.4-45.08 19.5-26.81 4.874-57.27 12.18-29.24 6.092-58.49 23.15-29.24 15.84-54.83 51.18-20.71 29.24-31.68 54.83-10.97 25.59-19.5 48.74-7.311 21.93-15.84 43.87-8.529 20.71-24.37 41.43-31.68 42.65-57.27 70.67-25.59 28.02-42.65 58.49-15.84 30.46-18.28 81.64zm262-165.7q-28.02 12.18-36.55 32.9-8.529 20.71-2.437 41.43 6.092 19.5 23.15 30.46 17.06 10.97 38.99 3.655 21.93-7.311 32.9-9.748 12.18-2.437 21.93 2.437t23.15 18.28q18.28 18.28 38.99 14.62 20.71-3.656 34.12-20.71 14.62-17.06 14.62-40.21 0-23.15-23.15-43.87-23.15-20.71-51.18-30.46-26.81-10.97-56.05-10.97t-58.49 12.18zm354.6-62.14q28.02-3.655 40.21-20.71 12.18-18.28 9.748-38.99-1.218-20.71-18.28-35.34-15.84-15.84-47.52-13.4-47.52 3.656-80.42 30.46-32.9 26.81-48.74 65.8-14.62 38.99-10.97 80.42 4.874 41.43 32.9 73.11 24.37 26.81 58.49 37.77t69.45 7.311q36.55-4.874 67.02-24.37 30.46-19.5 47.52-52.39 14.62-28.02 7.311-48.74-7.311-20.71-26.81-30.46-18.28-10.97-38.99-7.311-19.5 2.437-32.9 24.37-10.97 18.28-24.37 25.59-13.4 7.311-25.59 6.092-10.97-2.437-18.28-10.97-8.529-9.748-8.529-24.37t12.18-26.81q12.18-13.4 36.55-17.06zm12.18 504.4q14.62-10.97 17.06-28.02 2.437-15.84-4.874-31.68-6.092-14.62-21.93-21.93-15.84-7.311-37.77 2.437-13.4 4.874-24.37 9.748t-19.5 6.092-14.62-2.437q-4.874-3.655-3.656-20.71 1.218-15.84 2.437-38.99 1.218-24.37-6.092-49.96-6.092-26.81-25.59-48.74-19.5-23.15-58.49-36.55-51.18-18.28-99.92-31.68-47.52-14.62-97.48-25.59-48.74-12.18-104.8-20.71-54.83-8.529-120.6-14.62-21.93-2.437-30.46-7.311-7.311-6.092-4.874-17.06 3.655-12.18 9.748-29.24 37.77-99.92 95.04-188.9 57.27-88.95 126.7-158.4 70.67-70.67 145-112.1 23.15-13.4 37.77-19.5 14.62-6.092 25.59 0 12.18 4.874 26.81 28.02 28.02 45.08 62.14 113.3 34.12 67.02 69.45 146.2 35.34 79.2 68.23 157.2 32.9 76.76 58.49 141.3 25.59 64.58 37.77 103.6 4.874 14.62 4.874 21.93 1.218 6.092-4.874 7.311-4.874 0-18.28-3.656-26.81-9.748-47.52-17.06-20.71-7.311-53.61-18.28-29.24-10.97-49.96 0-19.5 9.748-26.81 30.46-7.311 19.5 1.218 40.21 9.748 20.71 38.99 31.68 21.93 8.529 42.65 15.84 20.71 7.311 43.87 13.4 23.15 7.311 51.18 17.06 59.71 19.5 95.04 2.437 36.55-17.06 45.08-60.92 9.748-43.87-14.62-102.4-25.59-67.02-56.05-142.6-30.46-76.76-64.58-156-32.9-79.2-68.23-156-34.12-77.98-69.45-147.4-35.34-69.45-69.45-124.3-24.37-38.99-57.27-51.18-31.68-13.4-69.45-6.092-36.55 7.311-77.98 30.46-92.6 52.39-175.5 134-82.86 80.42-149.9 184-65.8 102.4-110.9 221.8-13.4 36.55-13.4 69.45 0 31.68 13.4 57.27 13.4 24.37 37.77 40.21 25.59 14.62 60.92 18.28 71.89 7.311 131.6 15.84 59.71 8.529 109.7 18.28 51.18 9.748 95.04 21.93 43.87 12.18 81.64 26.81 15.84 6.092 21.93 25.59 6.092 19.5 8.529 45.08t6.092 51.18q4.874 26.81 17.06 47.52 12.18 21.93 38.99 31.68 29.24 9.748 54.83 6.092 25.59-3.655 47.52-17.06 23.15-12.18 42.65-26.81z" clip-path="url(#g)" filter="url(#d)"/>
  <path transform="translate(-576.2 -601)" d="m965.4 1554q-1.218 30.46 14.62 47.52 15.84 15.84 37.77 17.06 21.93 1.219 38.99-13.4 17.06-15.84 18.28-46.3 1.218-19.5 19.5-48.74 19.5-29.24 41.43-57.27 23.15-28.02 35.34-43.87 20.71-26.81 31.68-51.18 10.97-25.59 18.28-48.74 8.529-23.15 18.28-45.08 9.748-23.15 25.59-46.3 14.62-20.71 34.12-28.02 19.5-7.311 42.65-9.748 24.37-3.655 52.39-10.97 28.02-8.529 59.71-30.46 25.59-18.28 28.02-40.21 3.655-23.15-9.748-40.21-12.18-18.28-34.12-23.15-21.93-4.874-47.52 13.4-18.28 13.4-45.08 19.5-26.81 4.874-57.27 12.18-29.24 6.092-58.49 23.15-29.24 15.84-54.83 51.18-20.71 29.24-31.68 54.83-10.97 25.59-19.5 48.74-7.311 21.93-15.84 43.87-8.529 20.71-24.37 41.43-31.68 42.65-57.27 70.67-25.59 28.02-42.65 58.49-15.84 30.46-18.28 81.64zm262-165.7q-28.02 12.18-36.55 32.9-8.529 20.71-2.437 41.43 6.092 19.5 23.15 30.46 17.06 10.97 38.99 3.655 21.93-7.311 32.9-9.748 12.18-2.437 21.93 2.437t23.15 18.28q18.28 18.28 38.99 14.62 20.71-3.656 34.12-20.71 14.62-17.06 14.62-40.21 0-23.15-23.15-43.87-23.15-20.71-51.18-30.46-26.81-10.97-56.05-10.97t-58.49 12.18zm354.6-62.14q28.02-3.655 40.21-20.71 12.18-18.28 9.748-38.99-1.218-20.71-18.28-35.34-15.84-15.84-47.52-13.4-47.52 3.656-80.42 30.46-32.9 26.81-48.74 65.8-14.62 38.99-10.97 80.42 4.874 41.43 32.9 73.11 24.37 26.81 58.49 37.77t69.45 7.311q36.55-4.874 67.02-24.37 30.46-19.5 47.52-52.39 14.62-28.02 7.311-48.74-7.311-20.71-26.81-30.46-18.28-10.97-38.99-7.311-19.5 2.437-32.9 24.37-10.97 18.28-24.37 25.59-13.4 7.311-25.59 6.092-10.97-2.437-18.28-10.97-8.529-9.748-8.529-24.37t12.18-26.81q12.18-13.4 36.55-17.06zm12.18 504.4q14.62-10.97 17.06-28.02 2.437-15.84-4.874-31.68-6.092-14.62-21.93-21.93-15.84-7.311-37.77 2.437-13.4 4.874-24.37 9.748t-19.5 6.092-14.62-2.437q-4.874-3.655-3.656-20.71 1.218-15.84 2.437-38.99 1.218-24.37-6.092-49.96-6.092-26.81-25.59-48.74-19.5-23.15-58.49-36.55-51.18-18.28-99.92-31.68-47.52-14.62-97.48-25.59-48.74-12.18-104.8-20.71-54.83-8.529-120.6-14.62-21.93-2.437-30.46-7.311-7.311-6.092-4.874-17.06 3.655-12.18 9.748-29.24 37.77-99.92 95.04-188.9 57.27-88.95 126.7-158.4 70.67-70.67 145-112.1 23.15-13.4 37.77-19.5 14.62-6.092 25.59 0 12.18 4.874 26.81 28.02 28.02 45.08 62.14 113.3 34.12 67.02 69.45 146.2 35.34 79.2 68.23 157.2 32.9 76.76 58.49 141.3 25.59 64.58 37.77 103.6 4.874 14.62 4.874 21.93 1.218 6.092-4.874 7.311-4.874 0-18.28-3.656-26.81-9.748-47.52-17.06-20.71-7.311-53.61-18.28-29.24-10.97-49.96 0-19.5 9.748-26.81 30.46-7.311 19.5 1.218 40.21 9.748 20.71 38.99 31.68 21.93 8.529 42.65 15.84 20.71 7.311 43.87 13.4 23.15 7.311 51.18 17.06 59.71 19.5 95.04 2.437 36.55-17.06 45.08-60.92 9.748-43.87-14.62-102.4-25.59-67.02-56.05-142.6-30.46-76.76-64.58-156-32.9-79.2-68.23-156-34.12-77.98-69.45-147.4-35.34-69.45-69.45-124.3-24.37-38.99-57.27-51.18-31.68-13.4-69.45-6.092-36.55 7.311-77.98 30.46-92.6 52.39-175.5 134-82.86 80.42-149.9 184-65.8 102.4-110.9 221.8-13.4 36.55-13.4 69.45 0 31.68 13.4 57.27 13.4 24.37 37.77 40.21 25.59 14.62 60.92 18.28 71.89 7.311 131.6 15.84 59.71 8.529 109.7 18.28 51.18 9.748 95.04 21.93 43.87 12.18 81.64 26.81 15.84 6.092 21.93 25.59 6.092 19.5 8.529 45.08t6.092 51.18q4.874 26.81 17.06 47.52 12.18 21.93 38.99 31.68 29.24 9.748 54.83 6.092 25.59-3.655 47.52-17.06 23.15-12.18 42.65-26.81z" clip-path="url(#h)" filter="url(#b)"/>
 </g>
 <path transform="translate(-576.2 -601)" d="m965.4 1554q-1.218 30.46 14.62 47.52 15.84 15.84 37.77 17.06 21.93 1.219 38.99-13.4 17.06-15.84 18.28-46.3 1.218-19.5 19.5-48.74 19.5-29.24 41.43-57.27 23.15-28.02 35.34-43.87 20.71-26.81 31.68-51.18 10.97-25.59 18.28-48.74 8.529-23.15 18.28-45.08 9.748-23.15 25.59-46.3 14.62-20.71 34.12-28.02 19.5-7.311 42.65-9.748 24.37-3.655 52.39-10.97 28.02-8.529 59.71-30.46 25.59-18.28 28.02-40.21 3.655-23.15-9.748-40.21-12.18-18.28-34.12-23.15-21.93-4.874-47.52 13.4-18.28 13.4-45.08 19.5-26.81 4.874-57.27 12.18-29.24 6.092-58.49 23.15-29.24 15.84-54.83 51.18-20.71 29.24-31.68 54.83-10.97 25.59-19.5 48.74-7.311 21.93-15.84 43.87-8.529 20.71-24.37 41.43-31.68 42.65-57.27 70.67-25.59 28.02-42.65 58.49-15.84 30.46-18.28 81.64zm262-165.7q-28.02 12.18-36.55 32.9-8.529 20.71-2.437 41.43 6.092 19.5 23.15 30.46 17.06 10.97 38.99 3.655 21.93-7.311 32.9-9.748 12.18-2.437 21.93 2.437t23.15 18.28q18.28 18.28 38.99 14.62 20.71-3.656 34.12-20.71 14.62-17.06 14.62-40.21 0-23.15-23.15-43.87-23.15-20.71-51.18-30.46-26.81-10.97-56.05-10.97t-58.49 12.18zm354.6-62.14q28.02-3.655 40.21-20.71 12.18-18.28 9.748-38.99-1.218-20.71-18.28-35.34-15.84-15.84-47.52-13.4-47.52 3.656-80.42 30.46-32.9 26.81-48.74 65.8-14.62 38.99-10.97 80.42 4.874 41.43 32.9 73.11 24.37 26.81 58.49 37.77t69.45 7.311q36.55-4.874 67.02-24.37 30.46-19.5 47.52-52.39 14.62-28.02 7.311-48.74-7.311-20.71-26.81-30.46-18.28-10.97-38.99-7.311-19.5 2.437-32.9 24.37-10.97 18.28-24.37 25.59-13.4 7.311-25.59 6.092-10.97-2.437-18.28-10.97-8.529-9.748-8.529-24.37t12.18-26.81q12.18-13.4 36.55-17.06zm12.18 504.4q14.62-10.97 17.06-28.02 2.437-15.84-4.874-31.68-6.092-14.62-21.93-21.93-15.84-7.311-37.77 2.437-13.4 4.874-24.37 9.748t-19.5 6.092-14.62-2.437q-4.874-3.655-3.656-20.71 1.218-15.84 2.437-38.99 1.218-24.37-6.092-49.96-6.092-26.81-25.59-48.74-19.5-23.15-58.49-36.55-51.18-18.28-99.92-31.68-47.52-14.62-97.48-25.59-48.74-12.18-104.8-20.71-54.83-8.529-120.6-14.62-21.93-2.437-30.46-7.311-7.311-6.092-4.874-17.06 3.655-12.18 9.748-29.24 37.77-99.92 95.04-188.9 57.27-88.95 126.7-158.4 70.67-70.67 145-112.1 23.15-13.4 37.77-19.5 14.62-6.092 25.59 0 12.18 4.874 26.81 28.02 28.02 45.08 62.14 113.3 34.12 67.02 69.45 146.2 35.34 79.2 68.23 157.2 32.9 76.76 58.49 141.3 25.59 64.58 37.77 103.6 4.874 14.62 4.874 21.93 1.218 6.092-4.874 7.311-4.874 0-18.28-3.656-26.81-9.748-47.52-17.06-20.71-7.311-53.61-18.28-29.24-10.97-49.96 0-19.5 9.748-26.81 30.46-7.311 19.5 1.218 40.21 9.748 20.71 38.99 31.68 21.93 8.529 42.65 15.84 20.71 7.311 43.87 13.4 23.15 7.311 51.18 17.06 59.71 19.5 95.04 2.437 36.55-17.06 45.08-60.92 9.748-43.87-14.62-102.4-25.59-67.02-56.05-142.6-30.46-76.76-64.58-156-32.9-79.2-68.23-156-34.12-77.98-69.45-147.4-35.34-69.45-69.45-124.3-24.37-38.99-57.27-51.18-31.68-13.4-69.45-6.092-36.55 7.311-77.98 30.46-92.6 52.39-175.5 134-82.86 80.42-149.9 184-65.8 102.4-110.9 221.8-13.4 36.55-13.4 69.45 0 31.68 13.4 57.27 13.4 24.37 37.77 40.21 25.59 14.62 60.92 18.28 71.89 7.311 131.6 15.84 59.71 8.529 109.7 18.28 51.18 9.748 95.04 21.93 43.87 12.18 81.64 26.81 15.84 6.092 21.93 25.59 6.092 19.5 8.529 45.08t6.092 51.18q4.874 26.81 17.06 47.52 12.18 21.93 38.99 31.68 29.24 9.748 54.83 6.092 25.59-3.655 47.52-17.06 23.15-12.18 42.65-26.81z" clip-path="url(#i)" fill="#fffffa" filter="url(#c)" stroke="#f59e0b" stroke-width=".5"/>
 <path transform="translate(-576.2 -601)" d="m965.4 1554q-1.218 30.46 14.62 47.52 15.84 15.84 37.77 17.06 21.93 1.219 38.99-13.4 17.06-15.84 18.28-46.3 1.218-19.5 19.5-48.74 19.5-29.24 41.43-57.27 23.15-28.02 35.34-43.87 20.71-26.81 31.68-51.18 10.97-25.59 18.28-48.74 8.529-23.15 18.28-45.08 9.748-23.15 25.59-46.3 14.62-20.71 34.12-28.02 19.5-7.311 42.65-9.748 24.37-3.655 52.39-10.97 28.02-8.529 59.71-30.46 25.59-18.28 28.02-40.21 3.655-23.15-9.748-40.21-12.18-18.28-34.12-23.15-21.93-4.874-47.52 13.4-18.28 13.4-45.08 19.5-26.81 4.874-57.27 12.18-29.24 6.092-58.49 23.15-29.24 15.84-54.83 51.18-20.71 29.24-31.68 54.83-10.97 25.59-19.5 48.74-7.311 21.93-15.84 43.87-8.529 20.71-24.37 41.43-31.68 42.65-57.27 70.67-25.59 28.02-42.65 58.49-15.84 30.46-18.28 81.64zm262-165.7q-28.02 12.18-36.55 32.9-8.529 20.71-2.437 41.43 6.092 19.5 23.15 30.46 17.06 10.97 38.99 3.655 21.93-7.311 32.9-9.748 12.18-2.437 21.93 2.437t23.15 18.28q18.28 18.28 38.99 14.62 20.71-3.656 34.12-20.71 14.62-17.06 14.62-40.21 0-23.15-23.15-43.87-23.15-20.71-51.18-30.46-26.81-10.97-56.05-10.97t-58.49 12.18zm354.6-62.14q28.02-3.655 40.21-20.71 12.18-18.28 9.748-38.99-1.218-20.71-18.28-35.34-15.84-15.84-47.52-13.4-47.52 3.656-80.42 30.46-32.9 26.81-48.74 65.8-14.62 38.99-10.97 80.42 4.874 41.43 32.9 73.11 24.37 26.81 58.49 37.77t69.45 7.311q36.55-4.874 67.02-24.37 30.46-19.5 47.52-52.39 14.62-28.02 7.311-48.74-7.311-20.71-26.81-30.46-18.28-10.97-38.99-7.311-19.5 2.437-32.9 24.37-10.97 18.28-24.37 25.59-13.4 7.311-25.59 6.092-10.97-2.437-18.28-10.97-8.529-9.748-8.529-24.37t12.18-26.81q12.18-13.4 36.55-17.06zm12.18 504.4q14.62-10.97 17.06-28.02 2.437-15.84-4.874-31.68-6.092-14.62-21.93-21.93-15.84-7.311-37.77 2.437-13.4 4.874-24.37 9.748t-19.5 6.092-14.62-2.437q-4.874-3.655-3.656-20.71 1.218-15.84 2.437-38.99 1.218-24.37-6.092-49.96-6.092-26.81-25.59-48.74-19.5-23.15-58.49-36.55-51.18-18.28-99.92-31.68-47.52-14.62-97.48-25.59-48.74-12.18-104.8-20.71-54.83-8.529-120.6-14.62-21.93-2.437-30.46-7.311-7.311-6.092-4.874-17.06 3.655-12.18 9.748-29.24 37.77-99.92 95.04-188.9 57.27-88.95 126.7-158.4 70.67-70.67 145-112.1 23.15-13.4 37.77-19.5 14.62-6.092 25.59 0 12.18 4.874 26.81 28.02 28.02 45.08 62.14 113.3 34.12 67.02 69.45 146.2 35.34 79.2 68.23 157.2 32.9 76.76 58.49 141.3 25.59 64.58 37.77 103.6 4.874 14.62 4.874 21.93 1.218 6.092-4.874 7.311-4.874 0-18.28-3.656-26.81-9.748-47.52-17.06-20.71-7.311-53.61-18.28-29.24-10.97-49.96 0-19.5 9.748-26.81 30.46-7.311 19.5 1.218 40.21 9.748 20.71 38.99 31.68 21.93 8.529 42.65 15.84 20.71 7.311 43.87 13.4 23.15 7.311 51.18 17.06 59.71 19.5 95.04 2.437 36.55-17.06 45.08-60.92 9.748-43.87-14.62-102.4-25.59-67.02-56.05-142.6-30.46-76.76-64.58-156-32.9-79.2-68.23-156-34.12-77.98-69.45-147.4-35.34-69.45-69.45-124.3-24.37-38.99-57.27-51.18-31.68-13.4-69.45-6.092-36.55 7.311-77.98 30.46-92.6 52.39-175.5 134-82.86 80.42-149.9 184-65.8 102.4-110.9 221.8-13.4 36.55-13.4 69.45 0 31.68 13.4 57.27 13.4 24.37 37.77 40.21 25.59 14.62 60.92 18.28 71.89 7.311 131.6 15.84 59.71 8.529 109.7 18.28 51.18 9.748 95.04 21.93 43.87 12.18 81.64 26.81 15.84 6.092 21.93 25.59 6.092 19.5 8.529 45.08t6.092 51.18q4.874 26.81 17.06 47.52 12.18 21.93 38.99 31.68 29.24 9.748 54.83 6.092 25.59-3.655 47.52-17.06 23.15-12.18 42.65-26.81z" clip-path="url(#j)" fill="#fffffa" fill-opacity=".15" stroke="#f59e0b" stroke-width=".5"/>
</svg>
